<mxfile host="65bd71144e">
    <diagram id="8u5yD-rhjv1fHPsnnkIN" name="Page-1">
        <mxGraphModel dx="652" dy="612" grid="1" gridSize="10" guides="1" tooltips="1" connect="1" arrows="1" fold="1" page="1" pageScale="1" pageWidth="850" pageHeight="1100" background="none" math="0" shadow="0">
            <root>
                <mxCell id="0"/>
                <mxCell id="1" parent="0"/>
                <mxCell id="2" value="Horario Formato" style="swimlane;fontStyle=0;childLayout=stackLayout;horizontal=1;startSize=30;horizontalStack=0;resizeParent=1;resizeParentMax=0;resizeLast=0;collapsible=1;marginBottom=0;whiteSpace=wrap;html=1;" parent="1" vertex="1">
                    <mxGeometry x="160" y="50" width="240" height="230" as="geometry"/>
                </mxCell>
                <mxCell id="3" value="+ Profesor : String [1]&lt;br&gt;+ codigo :&amp;nbsp;&amp;nbsp;String [1]&lt;br&gt;+ titulo :&amp;nbsp;&amp;nbsp;String [1]&lt;br&gt;+ observacion :&amp;nbsp;&amp;nbsp;String [1]&lt;br&gt;+ horario : String [0][0]&lt;br&gt;+ horaLune :&amp;nbsp;&amp;nbsp;String [1][0]&lt;br&gt;+ horaMartes :&amp;nbsp;&amp;nbsp;String [2][0]&lt;br&gt;+ horaMiercoles :&amp;nbsp;&amp;nbsp;String [3][0]&lt;br&gt;+ horaJueves :&amp;nbsp;&amp;nbsp;String [4][0]&lt;br&gt;+ horaViernes :&amp;nbsp;&amp;nbsp;String [5][0]&lt;br&gt;+ horaSabado :&amp;nbsp;&amp;nbsp;String [6][0]" style="text;strokeColor=none;fillColor=none;align=center;verticalAlign=middle;spacingLeft=4;spacingRight=4;overflow=hidden;points=[[0,0.5],[1,0.5]];portConstraint=eastwest;rotatable=0;whiteSpace=wrap;html=1;" parent="2" vertex="1">
                    <mxGeometry y="30" width="240" height="200" as="geometry"/>
                </mxCell>
                <mxCell id="8" value="&amp;lt;&amp;lt;Interface&amp;gt;&amp;gt;&lt;br&gt;GestionarArchivoHorario" style="swimlane;fontStyle=0;childLayout=stackLayout;horizontal=1;startSize=30;horizontalStack=0;resizeParent=1;resizeParentMax=0;resizeLast=0;collapsible=1;marginBottom=0;whiteSpace=wrap;html=1;" parent="1" vertex="1">
                    <mxGeometry x="500" y="110" width="320" height="90" as="geometry"/>
                </mxCell>
                <mxCell id="9" value="+ readHorarioProfesores&amp;nbsp;(in directorioHorarios: String)&lt;br&gt;+ showTitulo ()&lt;br&gt;+showProfesores ()" style="text;strokeColor=none;fillColor=none;align=center;verticalAlign=middle;spacingLeft=4;spacingRight=4;overflow=hidden;points=[[0,0.5],[1,0.5]];portConstraint=eastwest;rotatable=0;whiteSpace=wrap;html=1;" parent="8" vertex="1">
                    <mxGeometry y="30" width="320" height="60" as="geometry"/>
                </mxCell>
                <mxCell id="10" value="Horario" style="swimlane;fontStyle=0;childLayout=stackLayout;horizontal=1;startSize=30;horizontalStack=0;resizeParent=1;resizeParentMax=0;resizeLast=0;collapsible=1;marginBottom=0;whiteSpace=wrap;html=1;" parent="1" vertex="1">
                    <mxGeometry x="520" y="340" width="210" height="90" as="geometry"/>
                </mxCell>
                <mxCell id="11" value="+presentarHorarios ()" style="text;strokeColor=none;fillColor=none;align=center;verticalAlign=middle;spacingLeft=4;spacingRight=4;overflow=hidden;points=[[0,0.5],[1,0.5]];portConstraint=eastwest;rotatable=0;whiteSpace=wrap;html=1;" parent="10" vertex="1">
                    <mxGeometry y="30" width="210" height="60" as="geometry"/>
                </mxCell>
                <mxCell id="12" value="" style="endArrow=none;dashed=1;html=1;entryX=0.516;entryY=1.05;entryDx=0;entryDy=0;entryPerimeter=0;exitX=0.5;exitY=0;exitDx=0;exitDy=0;" parent="1" source="10" target="9" edge="1">
                    <mxGeometry width="50" height="50" relative="1" as="geometry">
                        <mxPoint x="410" y="280" as="sourcePoint"/>
                        <mxPoint x="460" y="230" as="targetPoint"/>
                    </mxGeometry>
                </mxCell>
                <mxCell id="14" value="Horario Base" style="swimlane;fontStyle=0;childLayout=stackLayout;horizontal=1;startSize=30;horizontalStack=0;resizeParent=1;resizeParentMax=0;resizeLast=0;collapsible=1;marginBottom=0;whiteSpace=wrap;html=1;" parent="1" vertex="1">
                    <mxGeometry x="90" y="340" width="240" height="90" as="geometry"/>
                </mxCell>
                <mxCell id="15" value="+ void muestra contenido : (String archivo )&lt;br&gt;+ sc : Scanner [1]&lt;br&gt;+ main (int args: String)" style="text;strokeColor=none;fillColor=none;align=center;verticalAlign=middle;spacingLeft=4;spacingRight=4;overflow=hidden;points=[[0,0.5],[1,0.5]];portConstraint=eastwest;rotatable=0;whiteSpace=wrap;html=1;" parent="14" vertex="1">
                    <mxGeometry y="30" width="240" height="60" as="geometry"/>
                </mxCell>
                <mxCell id="16" value="" style="endArrow=none;html=1;entryX=-0.01;entryY=0.167;entryDx=0;entryDy=0;entryPerimeter=0;exitX=1;exitY=0.167;exitDx=0;exitDy=0;exitPerimeter=0;" parent="1" source="14" target="10" edge="1">
                    <mxGeometry width="50" height="50" relative="1" as="geometry">
                        <mxPoint x="290" y="500" as="sourcePoint"/>
                        <mxPoint x="340" y="450" as="targetPoint"/>
                    </mxGeometry>
                </mxCell>
            </root>
        </mxGraphModel>
    </diagram>
</mxfile>